<?xml version="1.0" encoding="utf-8"?>
<!-- Generator: Adobe Illustrator 25.2.2, SVG Export Plug-In . SVG Version: 6.00 Build 0)  -->
<svg version="1.0" id="Layer_1" xmlns="http://www.w3.org/2000/svg" xmlns:xlink="http://www.w3.org/1999/xlink" x="0px" y="0px"
	 viewBox="0 0 34.754 43.075" enable-background="new 0 0 34.754 43.075" xml:space="preserve">
<g>
	<path fill="#42413F" d="M10.839,10.89c-0.759-0.502-1.213-1.344-1.213-2.254V0.625C9.626,0.28,9.347,0,9.001,0H4.813
		C4.468,0,4.188,0.28,4.188,0.625V8.6c0,0.9-0.445,1.737-1.264,2.288C1.093,12.121,0,14.175,0,16.383V41.45
		c0,0.896,0.729,1.625,1.625,1.625H12.19c0.896,0,1.625-0.729,1.625-1.625V16.419C13.815,14.187,12.703,12.12,10.839,10.89z
		 M8.376,1.25v7.067H5.438V1.25H8.376z M12.565,41.45c0,0.207-0.169,0.375-0.375,0.375H1.625c-0.207,0-0.375-0.168-0.375-0.375
		V16.383c0-1.792,0.887-3.458,2.445-4.507c0.818-0.551,1.389-1.376,1.624-2.309h3.171c0.232,0.959,0.816,1.807,1.661,2.366
		c1.512,0.998,2.414,2.675,2.414,4.486V41.45z"/>
	<g>
		<path fill="#42413F" d="M11.096,36.792H2.719c-0.345,0-0.625-0.28-0.625-0.625V21.508c0-0.345,0.28-0.625,0.625-0.625h8.376
			c0.345,0,0.625,0.28,0.625,0.625v14.659C11.721,36.512,11.441,36.792,11.096,36.792z M3.344,35.542h7.126V22.133H3.344V35.542z"/>
	</g>
	<path fill="#42413F" d="M34.5,20.268c-0.15-0.31-0.523-0.44-0.834-0.291c-2.616,1.261-4.705,1.266-7.45,0.016l-0.22-0.1
		c-0.001,0-0.001,0-0.002,0l-0.218-0.099c-3.006-1.369-5.454-1.337-8.45,0.105c-0.311,0.15-0.441,0.523-0.292,0.835
		c0.15,0.31,0.523,0.44,0.835,0.292c2.654-1.28,4.725-1.306,7.39-0.094l0.217,0.098c0.001,0,0.001,0.001,0.002,0.001l0.22,0.1
		c1.535,0.699,2.915,1.048,4.279,1.048c1.38,0,2.744-0.358,4.232-1.076C34.52,20.952,34.65,20.579,34.5,20.268z"/>
	<path fill="#42413F" d="M32.472,26.033c1.886-1.303,2.714-3.586,2.061-5.68L30.92,8.756c-0.082-0.261-0.323-0.439-0.597-0.439
		h-9.136c-0.273,0-0.515,0.178-0.597,0.439l-3.614,11.596c-0.653,2.095,0.176,4.377,2.061,5.681l6.092,4.209v9.514
		c-2.007,0.125-4.012,0.845-6.004,2.174c-0.229,0.153-0.332,0.438-0.252,0.701c0.08,0.264,0.323,0.444,0.598,0.444h12.565
		c0.275,0,0.519-0.18,0.598-0.444c0.08-0.264-0.022-0.548-0.251-0.701c-1.992-1.328-3.998-2.049-6.004-2.174v-9.514L32.472,26.033z
		 M18.17,20.725l3.477-11.157h8.216l3.477,11.158c0.496,1.594-0.123,3.274-1.579,4.28l-6.006,4.149l-6.006-4.149
		C18.293,23.999,17.674,22.318,18.17,20.725z M21.888,41.825c1.284-0.564,2.561-0.846,3.838-0.85c0.01,0,0.019,0.006,0.029,0.006
		c0.01,0,0.019-0.005,0.029-0.006c1.277,0.004,2.554,0.287,3.838,0.85H21.888z"/>
</g>
</svg>
